# xmcd CD database file
#
# Track frame offsets:
#	150
#	31385
#	62970
#	76267
#	88691
#	110459
#	131462
#	154025
#	172498
#	199058
#	231718
#	255023
#	303685
#
# Disc length: 4598 seconds
#
# Revision: 0
# Processed by: cddbd v1.5.2PL0 Copyright (c) Steve Scherf et al.
# Submitted via: CDex 1.51
#
DISCID=b111f40d
DTITLE=Eric Dolphy - 12 Classic Albums Disc Two
DYEAR=1962
DGENRE=Jazz
TTITLE0=Out There
TTITLE1=Serene
TTITLE2=The Baron
TTITLE3=Eclipse
TTITLE4=17 West
TTITLE5=Sketch Of Melba
TTITLE6=Feathers
TTITLE7=Lautir
TTITLE8=Curtsy
TTITLE9=Geo's Tune
TTITLE10=They All Laughed
TTITLE11=Head Shakin'
TTITLE12=Dianna
EXTD=YEAR: 1962
EXTT0=
EXTT1=
EXTT2=
EXTT3=
EXTT4=
EXTT5=
EXTT6=
EXTT7=
EXTT8=
EXTT9=
EXTT10=
EXTT11=
EXTT12=
PLAYORDER=
